<svg xmlns="http://www.w3.org/2000/svg" viewBox="0 0 64 64" width="100%" height="100%">
  <rect x="0" y="0" width="64" height="64" rx="16" fill="#111111" />
  
  <path d="M 32 48 C 16 52, 4 40, 6 24 C 10 30, 16 32, 20 28 C 16 20, 20 8, 28 4 C 26 12, 28 18, 32 22 C 36 18, 38 12, 36 4 C 44 8, 48 20, 44 28 C 48 32, 54 30, 58 24 C 60 40, 48 52, 32 48 Z" fill="#B30000" />
  
  <path d="M 28 12 L 36 12 L 36 42 L 32 58 L 28 42 Z" fill="#E6E6E6" />
  <path d="M 18 24 L 46 24 L 46 30 L 18 30 Z" fill="#E6E6E6" />
  
  <path d="M 32 12 L 36 12 L 36 42 L 32 58 Z" fill="#CCCCCC" />
  <path d="M 32 24 L 46 24 L 46 30 L 32 30 Z" fill="#CCCCCC" />
</svg>
